<svg xmlns="http://www.w3.org/2000/svg" xmlns:xlink="http://www.w3.org/1999/xlink" width="872.904" height="691.999" viewBox="0 0 872.904 691.999">
  <defs>
    <linearGradient id="linear-gradient" x1="0.5" y1="1" x2="0.5" gradientUnits="objectBoundingBox">
      <stop offset="0" stop-color="gray" stop-opacity="0.251"/>
      <stop offset="0.54" stop-color="gray" stop-opacity="0.122"/>
      <stop offset="1" stop-color="gray" stop-opacity="0.102"/>
    </linearGradient>
  </defs>
  <g id="Group_5" data-name="Group 5" transform="translate(29.698)">
    <path id="Path_34" data-name="Path 34" d="M961.638,765.2c-9.511,9.342-20.993,16-33.391,20.927q-2.706,1.1-5.49,2.049c-4.79,1.69-9.692,3.155-14.638,4.435-2.438.645-4.894,1.239-7.349,1.793-4.176.953-8.369,1.8-12.537,2.581-15.468,2.878-31.04,5.009-46.689,6.627q-7.237.758-14.482,1.362l-1.928.164-3.458.277-2.127.164c-3.234.256-6.467.481-9.692.7-12.926.86-25.869,1.485-38.812,2.049-9.511.389-18.926.717-28.385,1.024l-19.238.666-4.972.174-2.179.072q-8.542.307-17.1.584l-1.608.051-5.015.174-9.511.307-2.836.092-2.594.082c-60.376,1.926-120.795,3.329-181.136,2.725q-7.245-.061-14.482-.184c-44.8-.686-89.556-2.54-134.231-6.146-15.7-1.27-31.506-2.807-47.225-4.927q-7.263-.973-14.482-2.12c-38.614-6.146-76.276-16.512-110.013-35.851-25.411-14.6-48.868-35.36-58.707-62.986-9.934-27.882-4.678-59.2,6.666-86.525s28.411-51.821,43.127-77.5c5.058-8.84,9.839-18.049,14.171-27.513.259-.574.527-1.157.778-1.731q3.329-7.406,6.277-15h0q2.8-7.232,5.188-14.607.718-2.2,1.375-4.394c.052-.164.1-.328.147-.492s.112-.369.164-.553A218.007,218.007,0,0,0,201.74,445.2l.207-1.352c.1-.645.19-1.28.277-1.926s.164-1.2.242-1.8h0a167.119,167.119,0,0,0,1.34-27.5V411.6a137.533,137.533,0,0,0-1.3-14.064h0c-.052-.4-.1-.789-.173-1.178a126.449,126.449,0,0,0-4.557-19.565c-.086-.277-.182-.563-.277-.85a1.288,1.288,0,0,0-.121-.379c-.648-1.956-1.34-3.892-2.1-5.828h0c-.121-.328-.259-.666-.389-1.024h0c-.251-.625-.5-1.25-.769-1.864h0q-1.824-4.415-4.064-8.717c-1.729-3.411-3.692-6.75-5.706-10.028l-.285-.461-.233-.389c-2.646-4.271-5.412-8.471-8.11-12.712-2.118-3.309-4.193-6.638-6.139-10.028l-.346-.615a108.086,108.086,0,0,1-6.294-12.835c-.363-.912-.718-1.823-1.046-2.745-.588-1.618-1.133-3.247-1.617-4.886-6.64-22.228-4.626-46.5-1.435-69.654,4.729-34.4,13.531-71.467,40.775-92.937,23.785-18.755,55.975-20.947,86.461-16.389,4.885.717,9.718,1.608,14.482,2.633l2.594.584c38.562,8.758,75.031,24.266,111.051,40.871,8.413,3.882,16.808,7.826,25.195,11.749q9.831,4.6,19.67,9.147,11.37,5.245,22.912,10.243,7.211,3.134,14.482,6.146,11.664,4.8,23.483,9.127,8.369,3.073,16.825,5.787c26.8,8.645,54.3,14.638,82.441,15.8a214.014,214.014,0,0,0,63.817-7.006c4.885-1.311,9.727-2.817,14.482-4.517a170.443,170.443,0,0,0,19.54-8.389c16.09-8.195,30.555-19.011,42-32.778l.1-.113c16.955-20.374,41.813-30.73,67.855-32.461a119.813,119.813,0,0,1,14.482-.092,125.546,125.546,0,0,1,52.465,14.545c41.19,22.125,67.829,68.968,65.823,115.749-2.914,68.1-58.327,120.368-91.389,179.943-2.334,4.2-4.557,8.533-6.623,12.958-.761,1.618-1.487,3.247-2.2,4.886-8.145,18.848-13.038,39.2-10.375,58.755a72.451,72.451,0,0,0,2.11,10.151c.406,1.444.865,2.889,1.375,4.323a81.2,81.2,0,0,0,17.2,27.882,124.1,124.1,0,0,0,10.574,10.182c30.849,26.571,75.532,43.329,95.271,79.631C992.236,700.282,986.132,741.1,961.638,765.2Z" transform="translate(-141.777 -122.422)" fill="#6c63ff" opacity="0.1"/>
    <path id="Path_35" data-name="Path 35" d="M793.421,614.856V463.815H810.05c.652-1.568,1.32-3.127,2.02-4.676H793.421V300.346h65.212c-.143-1.559-.3-3.137-.461-4.676H793.421V149.864a105.945,105.945,0,0,0-13.321.088V295.641H660.992V220.547c-4.374,1.627-8.828,3.068-13.321,4.323v70.771H477.65l-.406-.892,35.9-78.289q-7.778-2.6-15.476-5.538l-21.6,47.1V202.148q-6.688-2.862-13.321-5.881V263.2L423.579,177.78c-7.714-3.754-15.436-7.528-23.174-11.243l58.85,128.26-.414.892h-163V126.819c-4.382-.98-8.828-1.833-13.321-2.519V295.641H166.778c.445,1.568.946,3.127,1.487,4.676H282.522V459.11h-83.71c-.04.157-.087.314-.135.471q-.6,2.1-1.264,4.205h85.094v151.07H162.69q.557,2.333,1.153,4.676H282.522V774.091q6.68,2.176,13.321,4.548V619.531H462.755V784.364q6.656.118,13.321.176V619.531h171.6v162.2l8.748-.294,4.612-.167V619.531H780.069V775.64q6.664-.588,13.321-1.3v-154.8h52.09q-.215-2.338-.414-4.676Zm-330.675,0h-166.9V463.815H462.755Zm0-155.716h-166.9V300.346H460.369l2.386,4.244ZM647.672,614.856h-171.6V463.815h171.6Zm0-155.716h-171.6V300.346h171.6Zm132.4,155.716H660.992V463.815H780.069Zm0-155.716H660.992V300.346H780.069Z" transform="translate(-99.308 -92.66)" fill="#6c63ff" opacity="0.1"/>
    <path id="Path_36" data-name="Path 36" d="M872.57,198.26a5.78,5.78,0,0,1-5.54,6H855.85a5.92,5.92,0,0,1,4.24,5.8,5.78,5.78,0,0,1-5.54,6H815.71a5.29,5.29,0,0,1-3.84-1.68c18.61-8,35.34-18.56,48.58-32l.11-.11h1.22a5.33,5.33,0,0,1,3.91,1.75,6.26,6.26,0,0,1,0,8.38H867a5.78,5.78,0,0,1,5.57,5.86Z" transform="translate(-228.208 -101.99)" fill="#6c63ff" opacity="0.1"/>
    <path id="Path_37" data-name="Path 37" d="M446.14,249.1h-1.29a6.19,6.19,0,0,0,1.58-4.16h0a5.78,5.78,0,0,0-5.54-6H402.05a5.78,5.78,0,0,0-5.54,6h0a5.78,5.78,0,0,0,5.54,6h1.3a6.19,6.19,0,0,0-1.59,4.16,5.93,5.93,0,0,0,4.24,5.8H394.82a6,6,0,0,0,0,11.93h38.84a5.78,5.78,0,0,0,5.54-6A5.91,5.91,0,0,0,435,261h11.18a6,6,0,0,0,0-11.94Z" transform="translate(-143.077 -102.817)" fill="#6c63ff" opacity="0.1"/>
    <path id="Path_38" data-name="Path 38" d="M926.6,492.25h-1.3a6.14,6.14,0,0,0,1.58-4.16h0a5.78,5.78,0,0,0-5.54-6H882.5a5.79,5.79,0,0,0-5.54,6h0a5.79,5.79,0,0,0,5.54,6h1.3a6.18,6.18,0,0,0-1.58,4.16,5.9,5.9,0,0,0,4.24,5.79H875.28a6,6,0,0,0,0,11.94h38.84a5.79,5.79,0,0,0,5.54-6,5.91,5.91,0,0,0-4.24-5.79H926.6a6,6,0,0,0,0-11.94Z" transform="translate(-240.143 -104.286)" fill="#6c63ff" opacity="0.1"/>
    <ellipse id="Ellipse_7" data-name="Ellipse 7" cx="79.9" cy="105.91" rx="79.9" ry="105.91" transform="matrix(0.99, -0.143, 0.143, 0.99, 53.064, 212.012)" opacity="0.1"/>
    <ellipse id="Ellipse_8" data-name="Ellipse 8" cx="79.9" cy="105.91" rx="79.9" ry="105.91" transform="matrix(0.99, -0.143, 0.143, 0.99, 55.132, 211.164)" fill="#3a3768"/>
    <path id="Path_39" data-name="Path 39" d="M301.25,422.17A114.051,114.051,0,0,1,295.79,451a85.531,85.531,0,0,1-16.48,29.63c-9,10.29-20.44,17.1-33.42,19a50.47,50.47,0,0,1-6.47.5c-35.1.48-67.88-36-74.95-85.07C157,363,181.25,316.35,218.71,311c11.15-1.61,22.2.61,32.43,5.91,14.73,7.6,27.76,21.58,36.88,39.64h0a126.76,126.76,0,0,1,12.11,39,129.4,129.4,0,0,1,1.12,26.62Z" transform="translate(-78.3 -103.637)" fill="#6c63ff"/>
    <path id="Path_40" data-name="Path 40" d="M248.18,409.4l-4.84,44.09s15.48-1.45,20-9.19l-14.27-35.64Z" transform="translate(-90.231 -103.874)" fill="#6c63ff"/>
    <path id="Path_41" data-name="Path 41" d="M248.18,409.4l-4.84,44.09s15.48-1.45,20-9.19l-14.27-35.64Z" transform="translate(-90.231 -103.874)" opacity="0.2"/>
    <path id="Path_42" data-name="Path 42" d="M180.07,407.93l24.35-1.64s2.53,18.5,10.22,28.91L197.35,454S179.42,425.43,180.07,407.93Z" transform="translate(-78.3 -103.868)" opacity="0.2"/>
    <rect id="Rectangle_13" data-name="Rectangle 13" width="84.22" height="1" transform="translate(105.995 363.326) rotate(-47)" fill="#fff" opacity="0.3"/>
    <path id="Path_43" data-name="Path 43" d="M85.49,307.66l-.08-1,79.88-5.82.08.99Z" transform="translate(0 -1.746)" fill="#fff" opacity="0.3"/>
    <path id="Path_44" data-name="Path 44" d="M288,356.51h0l-6.91,8.38c-17.09-32.71-31.35-34.55-31.35-34.55l1.38-13.48C265.87,324.47,278.9,338.45,288,356.51Z" transform="translate(-113.982 -103.316)" opacity="0.2"/>
    <path id="Path_45" data-name="Path 45" d="M212.41,366.9l31.54,33-2.21.93-36.68-14.42S208,374.68,212.41,366.9Z" transform="translate(-88.089 -103.59)" opacity="0.2"/>
    <rect id="Rectangle_14" data-name="Rectangle 14" width="1" height="81.76" transform="translate(87.342 267.326) rotate(-68.55)" fill="#fff" opacity="0.3"/>
    <path id="Path_46" data-name="Path 46" d="M250.79,402.64,276.51,399s1.81,10.64.85,13.75a2.329,2.329,0,0,1-.11.28Z" transform="translate(-90.781 -103.732)" opacity="0.2"/>
    <path id="Path_47" data-name="Path 47" d="M192.14,346.34s10.75-15.53,24.14-19.65L228.12,355s-11.54,4.27-15.58,12.79Z" transform="translate(-78.3 -103.362)" opacity="0.2"/>
    <path id="Path_48" data-name="Path 48" d="M246.43,397.3l-.86-.11c-.19,0-.4-.06-.54-.66l-35.25-83.4.92-.39,34.11,80.72c0-4.49.54-14.49,2.41-36.78,1.65-19.68,3.57-39.58,3.59-39.78l1,.1c-2.86,29.61-6.68,74-5.92,79Z" transform="translate(-88.42 -103.369)" fill="#fff" opacity="0.3"/>
    <rect id="Rectangle_15" data-name="Rectangle 15" width="1" height="88.47" transform="translate(102.455 232.049) rotate(-44.18)" fill="#fff" opacity="0.3"/>
    <path id="Path_49" data-name="Path 49" d="M269.87,376.67l10.77-12.2s10.23,25.23,9.08,32.73L276.93,399S272.33,377.35,269.87,376.67Z" transform="translate(-117.247 -103.577)" opacity="0.2"/>
    <rect id="Rectangle_16" data-name="Rectangle 16" width="56.97" height="1" transform="translate(135.794 295.253) rotate(-48.39)" fill="#fff" opacity="0.3"/>
    <path id="Path_50" data-name="Path 50" d="M277.4,399.45l-.06-.53a1.034,1.034,0,0,0-.07-.46c-.07-.15,0-.41-.08-.62a66.13,66.13,0,0,0-6.62-20.95c-.11-.21-.22-.42-.34-.63a2.188,2.188,0,0,0-.16-.3c-5.38-10-13.1-17.47-21.71-21-.32-.14-.64-.26-1-.38a28.24,28.24,0,0,0-14-1.59,26.649,26.649,0,0,0-5.16,1.27,2.431,2.431,0,0,0-.38.13l-.57.21a32.77,32.77,0,0,0-14.78,12.12l-.11.16-.29.43h0a2.2,2.2,0,0,0-.17.25c-.42.63-.83,1.27-1.22,1.94s-.74,1.28-1.09,2a53.16,53.16,0,0,0-4.9,13.74c-.08.33-.15.67-.21,1a65.62,65.62,0,0,0-.78,19.52l.06.59a1.1,1.1,0,0,0,.05.4c.07.55.14,1.1.22,1.65a64.41,64.41,0,0,0,10.1,26.82c.06.1.13.19.2.29s.25.37.39.55c.34.5.69,1,1.06,1.46,7,9.31,16.37,15.24,26.19,15.94.43,0,.87.05,1.31.06h1a26.2,26.2,0,0,0,3.52-.27,29.08,29.08,0,0,0,15.89-8c.26-.24.52-.49.77-.75a43.42,43.42,0,0,0,9.35-14.74c.14-.34.27-.68.4-1a59.44,59.44,0,0,0,3.34-14.88l.09-1.05a67.712,67.712,0,0,0-.24-13.38ZM273.49,428c-.12.35-.25.7-.38,1a42.779,42.779,0,0,1-9,14.51c-.25.26-.5.52-.76.76a28.15,28.15,0,0,1-15.62,7.94,24.315,24.315,0,0,1-3.29.26h-1c-10.27-.21-20.11-6.4-27.34-16.32l-.62-.87c-.2-.28-.39-.56-.57-.85a63.29,63.29,0,0,1-9.81-26.22c-.08-.53-.15-1.06-.21-1.58,0-.34-.08-.67-.11-1a64.63,64.63,0,0,1,.73-19.07c.06-.34.12-.67.2-1a52.069,52.069,0,0,1,4.85-13.65l.66-1.21c.47-.83,1-1.64,1.47-2.41.15-.23.3-.46.46-.68a1.633,1.633,0,0,1,.11-.17,31.91,31.91,0,0,1,14.46-11.93l.94-.35h0a26.551,26.551,0,0,1,10.55-1.39,28.691,28.691,0,0,1,8.11,1.82l1,.39c8.38,3.52,15.87,10.92,21.09,20.75.17.31.33.63.49.95A65.5,65.5,0,0,1,276.2,398l.09.61h0v.37c0,.12.05.41.07.62a66,66,0,0,1,.31,12.83v.32l-.06.73h0A57.91,57.91,0,0,1,273.49,428Z" transform="translate(-88.384 -103.675)" fill="#fff" opacity="0.3"/>
    <path id="Path_51" data-name="Path 51" d="M301.25,422.17A114.051,114.051,0,0,1,295.79,451l-10.27-10.39c2.8-4.22,4.52-22.4,4.52-22.4l.59.41C291.15,419.73,296.83,421.18,301.25,422.17Z" transform="translate(-120.108 -103.897)" opacity="0.2"/>
    <rect id="Rectangle_17" data-name="Rectangle 17" width="1" height="62.76" transform="matrix(0.705, -0.709, 0.709, 0.705, 136.505, 303.114)" fill="#fff" opacity="0.3"/>
    <path id="Path_52" data-name="Path 52" d="M222.71,321.35l-51.3-20.74,50.34-7.57.15.99-46.72,7.02,47.9,19.37Z" transform="translate(-36.157 -1.756)" fill="#fff" opacity="0.3"/>
    <path id="Path_53" data-name="Path 53" d="M279.31,480.67c-9,10.29-20.44,17.1-33.42,19a50.48,50.48,0,0,1-6.47.5l2.1-21s19.23.29,30.37-15.23Z" transform="translate(-90.252 -104.184)" opacity="0.2"/>
    <rect id="Rectangle_18" data-name="Rectangle 18" width="1" height="77.01" transform="matrix(0.922, -0.386, 0.386, 0.922, 158.262, 306.015)" fill="#fff" opacity="0.3"/>
    <rect id="Rectangle_19" data-name="Rectangle 19" width="90.1" height="1" transform="translate(149.443 396.067) rotate(-85.04)" fill="#fff" opacity="0.3"/>
    <path id="Path_54" data-name="Path 54" d="M290.3,397.51a6.989,6.989,0,0,0-.12-1c-.09-.82-.2-1.64-.32-2.46a106.109,106.109,0,0,0-8.55-29.27v-.09l-.42-.89c-7.33-15.45-18.05-27.51-30.24-34.13-.24-.14-.49-.27-.74-.4l-.21-.11a42.84,42.84,0,0,0-26-4.75,40,40,0,0,0-7.31,1.77l-.94.34h0a47.36,47.36,0,0,0-20.37,15.35q-1.5,1.89-2.87,3.94c-.19.28-.38.56-.56.85a80.42,80.42,0,0,0-11.19,29c-.07.33-.13.66-.18,1a104.88,104.88,0,0,0-.71,30.82,7.027,7.027,0,0,0,.13,1c.05.34.12.95.19,1.43.11.77.23,1.55.36,2.31v.07c.49,3,1.1,5.91,1.82,8.77a.29.29,0,0,0,0,.09,97,97,0,0,0,14.74,32.69c.19.28.38.55.59.83a77.441,77.441,0,0,0,6.4,7.71c1.34,1.42,2.72,2.75,4.12,4,9.07,8.13,19.2,12.75,29.47,13.48,1.2.08,2.41.11,3.61.08h.42a5.678,5.678,0,0,0,.59,0,38.532,38.532,0,0,0,4-.36c9.84-1.42,18.75-6.38,26-14.35.09-.09.17-.19.25-.28l.49-.54a64,64,0,0,0,8.87-13.22,77.165,77.165,0,0,0,4.08-9.53,3660844106324.372,3660844106324.372,0,0,1,.36-1.06,91.589,91.589,0,0,0,4.44-21.45,1.507,1.507,0,0,1,.05-.47c.05-.16,0-.38.05-.57q.31-4.08.32-8.25A109.453,109.453,0,0,0,290.3,397.51Zm-.69,21.22a90.451,90.451,0,0,1-4.26,21.06q-.17.52-.36,1a76.567,76.567,0,0,1-4.18,9.86,62.92,62.92,0,0,1-8.42,12.64c-.23.28-.48.56-.73.83-7.2,8-16,13-25.76,14.39q-1.89.27-3.78.36h-1c-11.39.24-22.77-4.47-32.81-13.59-1.27-1.15-2.52-2.38-3.75-3.67a78.67,78.67,0,0,1-6.44-7.76l-.29-.42-.3-.42c-8.49-12-14.3-27-16.65-43.33-.07-.45-.13-.9-.19-1.35a1.36,1.36,0,0,0-.07-.52c-.07-.18,0-.31-.05-.47a104,104,0,0,1,.65-30.38l.18-1a79.39,79.39,0,0,1,11-28.64q.15-.25.33-.51c.07-.12.15-.24.23-.35.88-1.33,1.81-2.61,2.77-3.83a46.48,46.48,0,0,1,20.16-15.26l.67-.24.28-.1a38.873,38.873,0,0,1,7.06-1.7,39.549,39.549,0,0,1,8.34-.3,43.839,43.839,0,0,1,17.38,5.13l.2.1.75.41a63.73,63.73,0,0,1,18,15.27,87,87,0,0,1,11.66,18.6c.05.09.09.19.13.28l.33.7h0a105.64,105.64,0,0,1,8.28,28.6c.12.82.23,1.63.33,2.45a1.705,1.705,0,0,0,.07.59c.07.2,0,.27,0,.41a105.92,105.92,0,0,1,.39,20Q289.67,418.2,289.61,418.73Z" transform="translate(-78.3 -103.635)" fill="#fff" opacity="0.3"/>
    <ellipse id="Ellipse_9" data-name="Ellipse 9" cx="5.03" cy="6.92" rx="5.03" ry="6.92" transform="matrix(0.99, -0.143, 0.143, 0.99, 150.707, 293.682)" fill="#6c63ff"/>
    <ellipse id="Ellipse_10" data-name="Ellipse 10" cx="5.03" cy="6.92" rx="5.03" ry="6.92" transform="matrix(0.99, -0.143, 0.143, 0.99, 150.707, 293.682)" opacity="0.2"/>
    <circle id="Ellipse_11" data-name="Ellipse 11" cx="13.54" cy="13.54" r="13.54" transform="translate(526.879 32.32)" fill="#6c63ff" opacity="0.1"/>
    <circle id="Ellipse_12" data-name="Ellipse 12" cx="13.54" cy="13.54" r="13.54" transform="translate(33.85 176.2)" fill="#6c63ff" opacity="0.1"/>
    <circle id="Ellipse_13" data-name="Ellipse 13" cx="13.54" cy="13.54" r="13.54" transform="translate(785.485 271.795)" fill="#6c63ff" opacity="0.1"/>
    <circle id="Ellipse_14" data-name="Ellipse 14" cx="13.54" cy="13.54" r="13.54" transform="translate(730.705 353.016)" fill="#6c63ff" opacity="0.1"/>
    <circle id="Ellipse_15" data-name="Ellipse 15" cx="6.24" cy="6.24" r="6.24" transform="translate(566.783 19.16)" fill="#6c63ff" opacity="0.1"/>
    <circle id="Ellipse_16" data-name="Ellipse 16" cx="6.24" cy="6.24" r="6.24" transform="translate(0 152.224)" fill="#6c63ff" opacity="0.1"/>
    <circle id="Ellipse_17" data-name="Ellipse 17" cx="6.24" cy="6.24" r="6.24" transform="translate(785.485 436.918)" fill="#6c63ff" opacity="0.1"/>
    <circle id="Ellipse_18" data-name="Ellipse 18" cx="4.41" cy="4.41" r="4.41" transform="translate(596.208 0)" fill="#6c63ff" opacity="0.1"/>
    <circle id="Ellipse_19" data-name="Ellipse 19" cx="4.41" cy="4.41" r="4.41" transform="translate(29.44 247.173)" fill="#6c63ff" opacity="0.1"/>
    <path id="Path_55" data-name="Path 55" d="M1045.21,742.79s-7.48-32.17-12.46-71.28-43.59-104.1-43.59-104.1c-.17-.33-.35-.67-.53-1a177.517,177.517,0,0,0-21.48-31.85c-17-20.07-32.42-29.09-33.19-29.53h0c-1.22-1.86-2.53-3.91-3.91-6.1-5.18-8.19-11.34-18.49-17.22-29.61a4.16,4.16,0,0,0-.14-.77h0c-2.62-15.84-2.72-32.5,5.16-46.18,3.89-6.75,9.5-12.31,13.78-18.81,7-10.6,10.18-23.25,12.75-35.73,1.81-8.73,3.37-17.63,2.91-26.52v-.4h0c0-.62-.08-1.24-.14-1.86-1.47-16.12-9.92-30.6-18.16-44.47-4.34-7.3-8.9-14.83-15.89-19.55-14.54-9.81-32.36-3.67-47.9-9.29-16.51-6-31.6-11.59-49.57-13.43-6.37-.65-13.37-.81-18.53,3-5.42,4-7.22,11.3-10.82,17.07-6.87,11-19.83,16-30.77,22.92-8.31,5.21-16.28,13.54-18,22.71v-.08a20.212,20.212,0,0,0-.32,3c0,.06,0,.13,0,.19v.3a18.17,18.17,0,0,0,.74,5.47c.62.32,1.25.6,1.89.88-.4.65-.8,1.3-1.18,2l-.84,1.49A97.36,97.36,0,0,0,786.41,468.7h0c.59,1.44,1.2,2.93,1.8,4.47a226.441,226.441,0,0,1,16,81.58h0v3.83h0c-9,11.4-18.33,25.54-18,35.32.54,16.38-21.3,54.49-27.19,64.45l-1.18,2h0c-5.88-4.26-12.87-8.09-16.26-5.4l-2.84-1.82c-14.36-9.22-40-26.3-49.67-36.51-13.7-14.51-40.48-27.76-40.48-27.76s-21.17-25.24-19.92-34.7c.62-4.71-7.88-42.31-18.41-69.9,7.69.81,15.59,1.78,18,2.08l.59.52.83.13c29.11,25.58,35.48,14.18,35.48,14.18,2.38-1.61,3.19-6.46,3.42-8.32v-.44h.15v-.37a2.686,2.686,0,0,0,.16-.34l.07-.13.05-.1a.81.81,0,0,1,.11-.26,4.627,4.627,0,0,0,.39-1h-.08a37.453,37.453,0,0,0,.61-6.34,7.2,7.2,0,0,0-5.64-7.06.215.215,0,0,0-.05-.16c-3.78-11.24-31.27,5.43-34.31,7.32l-.74.08c-5.51-1.1-14-3.11-21.19-4.85-9.75-23.72-20.81-37-27.9-7.81l-6.52-1.12a6,6,0,0,0-4.66,1.1,7.91,7.91,0,0,0-2.23,2.54l-28.29-4.48-6.67.23,5.65,2.73.42.2,28.29,4.61a6.13,6.13,0,0,0,5.25,5.29l6.35.92c-11.34,66.19,14,87.79,14,87.79s30.51,29.92,30.51,37c0,6,59.56,77.27,77.66,98.78,3.24,3.86,5.16,6.12,5.16,6.12,7.11,8.17,41.3,36.08,57.21,48.94h0c1.56,13,3,26,3.83,33.13l3-.08,14.23-.39,7.66-.23q9.9-.27,19.78-.57l2.52-.07,5.75-.18q11.13-.32,22.25-.66,16.41-.5,32.83-1c15-.53,29.94-1.14,44.89-2,3.73-.21,7.47-.43,11.21-.68l2.46-.17,4-.27c24.46-1.73,48.82-4.22,73-8.06,4.82-.77,9.67-1.61,14.5-2.56,2.84-.54,5.68-1.13,8.5-1.77,5.72-1.27,11.39-2.72,16.93-4.39C1047.32,755.19,1045.21,742.79,1045.21,742.79Z" transform="translate(-221.465 -105.99)" fill="url(#linear-gradient)"/>
    <path id="Path_56" data-name="Path 56" d="M632.76,490.57l-3.72-.13s-25.23-3.13-33.31-3.32a5.58,5.58,0,0,0-2.43.19l1.79-7.22,2.19.54c7.69,1.9,33.18,8.14,37.28,8.28C639.41,489.07,632.76,490.57,632.76,490.57Z" transform="translate(-182.256 -104.196)" fill="#6c63ff"/>
    <path id="Path_57" data-name="Path 57" d="M629.83,488.17s30.6-19.14,34.6-7.39S658,494.26,658,494.26Z" transform="translate(-188.674 -104.2)" fill="#6c63ff"/>
    <path id="Path_58" data-name="Path 58" d="M629.83,488.17s30.6-19.14,34.6-7.39S658,494.26,658,494.26Z" transform="translate(-188.674 -104.2)" opacity="0.2"/>
    <path id="Path_59" data-name="Path 59" d="M665.15,505S658.7,516.42,629,490.44l.41-.53,1.23-1.59s38.44-17.67,39.44-.41a33.3,33.3,0,0,1-.72,6.68,3.46,3.46,0,0,1-.61,1.32l-.14.13a4.736,4.736,0,0,1-.08.73C668.34,498.61,667.53,503.39,665.15,505Z" transform="translate(-189.118 -104.253)" fill="#6c63ff"/>
    <path id="Path_60" data-name="Path 60" d="M665.15,505S658.7,516.42,629,490.44l.41-.53.69-.71,38.65,6.71-.14.13a4.736,4.736,0,0,1-.08.73C668.34,498.61,667.53,503.39,665.15,505Z" transform="translate(-188.973 -104.275)" opacity="0.1"/>
    <path id="Path_61" data-name="Path 61" d="M668.77,496.36,629.23,490l-2-1.7,3.62-.42,38.71,6.27a2.87,2.87,0,0,1-.74,1.45A5.153,5.153,0,0,1,668.77,496.36Z" transform="translate(-188.905 -104.235)" opacity="0.1"/>
    <path id="Path_62" data-name="Path 62" d="M668.38,497.18l-39.54-6.33-2-1.69,3.61-.43L669.2,495a2.79,2.79,0,0,1-.75,1.45S668.44,496.73,668.38,497.18Z" transform="translate(-188.831 -104.24)" opacity="0.1"/>
    <path id="Path_63" data-name="Path 63" d="M668.57,496.77,629,490.44l-2-1.69,3.61-.43,38.72,6.27a3,3,0,0,1-.75,1.45A2.581,2.581,0,0,1,668.57,496.77Z" transform="translate(-188.859 -104.238)" fill="#4c4c56"/>
    <path id="Path_64" data-name="Path 64" d="M595.73,487.12a5.58,5.58,0,0,0-2.43.19l1.79-7.22,2.19.54A27,27,0,0,1,595.73,487.12Z" transform="translate(-178.38 -104.186)" opacity="0.1"/>
    <path id="Path_65" data-name="Path 65" d="M596,478.24l-22.21-3.76a6.05,6.05,0,0,0-4.66,1.09,6.29,6.29,0,0,0-2.87,5.5,6.08,6.08,0,0,0,5.29,5.47l22.27,3.16S597.84,479.89,596,478.24Z" transform="translate(-175.658 -104.178)" fill="#d1d9ec"/>
    <path id="Path_66" data-name="Path 66" d="M532.33,474.08l6.68-.24,28.79,4.51a1.59,1.59,0,0,1,1.32,1.87h0a1.59,1.59,0,0,1-1.81,1.26L538,476.77Z" transform="translate(-169.607 -104.151)" opacity="0.1"/>
    <path id="Path_67" data-name="Path 67" d="M531.92,473.88l6.67-.23,28.8,4.5A1.59,1.59,0,0,1,568.7,480h0a1.59,1.59,0,0,1-1.8,1.27l-29.32-4.72Z" transform="translate(-169.525 -104.15)" fill="#dfe6f5"/>
    <path id="Path_68" data-name="Path 68" d="M748.79,661.28,705.2,714.21s-1.92-2.23-5.16-6.05c-18.1-21.23-77.66-91.54-77.66-97.5,0-7-30.51-36.56-30.51-36.56s-27.4-23-12.46-94.68,50.44,68.52,49.2,77.86,19.92,34.25,19.92,34.25,26.78,13.08,40.48,27.4c9.64,10.08,35.31,26.94,49.67,36C744.74,658.81,748.79,661.28,748.79,661.28Z" transform="translate(-193.568 -105.99)" fill="#fdc2cc"/>
    <path id="Path_69" data-name="Path 69" d="M748.79,661.28,705.2,714.21s-1.92-2.23-5.16-6.05c.7-14.82,32-47.52,37.54-52.49a4,4,0,0,1,1.1-.7C744.74,658.81,748.79,661.28,748.79,661.28Z" transform="translate(-204.128 -105.99)" opacity="0.1"/>
    <path id="Path_70" data-name="Path 70" d="M767.47,670s-19.93-18.68-26.15-13.07-45.46,46.7-36.12,57.29S770.58,769,770.58,769Z" transform="translate(-207.192 -105.99)" fill="#5f5d7e"/>
    <path id="Path_71" data-name="Path 71" d="M767.47,670s-19.93-18.68-26.15-13.07-45.46,46.7-36.12,57.29S770.58,769,770.58,769Z" transform="translate(-207.192 -105.99)" opacity="0.1"/>
    <path id="Path_72" data-name="Path 72" d="M942.45,521.17S923,539.94,898.64,560.3l-.92.76-1.42,1.18h0c-38.86,32.14-88.94,66.82-94.1,37.14a41.27,41.27,0,0,1-.07-11.69c.06-.57.14-1.16.22-1.76s.16-1.16.22-1.73a196.12,196.12,0,0,0,1.61-22.55v-3.78a221,221,0,0,0-16-80.53c-.6-1.52-1.21-3-1.8-4.41h0c-8-19.08-15.83-30.22-15.83-30.22s11.57-7,27.61-16c5.89-3.28,12.37-6.81,19.11-10.35,37-19.4,81.49-38.8,75.33-16-2.91,10.79-.21,25.11,5.15,40.1.3.83.6,1.64.91,2.46a246.454,246.454,0,0,0,12,26.49l.3.58c6.43,12.32,13.36,23.83,19.1,32.78,1.38,2.16,2.69,4.18,3.91,6C939,516.47,942.45,521.17,942.45,521.17Z" transform="translate(-237.75 -104.414)" fill="#fdc2cc"/>
    <path id="Path_73" data-name="Path 73" d="M898.69,442.92c-.29.43-.6.86-.91,1.28-9.34,12.7-20.15,20.26-33,24.52-8.86,2.95-18.72,4.34-29.77,4.78-2.75.1-5.56.15-8.46.15a169.182,169.182,0,0,1-20-1.15c-3.49-.55-7.14,1.8-10.67,3.52-2.63,1.27-5.2,2.2-7.6,1.32-.6-1.52-1.21-3-1.8-4.41h0c-8-19.08-15.83-30.22-15.83-30.22s11.57-7,27.61-16c5.89-3.28,12.37-6.81,19.11-10.35,37-19.4,81.49-38.8,75.33-16-2.91,10.79-.21,25.11,5.15,40.1C898.08,441.29,898.38,442.1,898.69,442.92Z" transform="translate(-230.206 -103.884)" opacity="0.1"/>
    <path id="Path_74" data-name="Path 74" d="M916.3,384c0,1.46,0,2.9-.1,4.34a95.35,95.35,0,0,1-110.4,89.85,91.469,91.469,0,0,1-10-2.14,93.914,93.914,0,0,1-9.4-3.09h0a95.46,95.46,0,0,1-48.71-135.6l.84-1.47A95.4,95.4,0,0,1,916.3,384Z" transform="translate(-230.79 -103.468)" fill="#fdc2cc"/>
    <path id="Path_75" data-name="Path 75" d="M942.45,521.17S791.13,667.5,802.34,585.93a202.1,202.1,0,0,0,1.86-28.06,246.826,246.826,0,0,1,16.71-18.64l21.26-15.37a119.06,119.06,0,0,1,75.76-22.76,55,55,0,0,1,12.12,1.67C937.18,513.94,942.45,521.17,942.45,521.17Z" transform="translate(-239.14 -104.712)" opacity="0.1"/>
    <path id="Path_76" data-name="Path 76" d="M1049.7,772.39c-5.54,1.65-11.21,3.08-16.93,4.33-2.82.63-5.66,1.21-8.5,1.75-4.83.93-9.68,1.76-14.5,2.52-24.14,3.79-48.5,6.25-73,8l-4,.27-2.46.16c-3.74.25-7.48.47-11.21.68-14.95.84-29.92,1.45-44.89,2-11,.38-21.89.7-32.83,1l-22.25.65-5.75.17-2.52.07q-9.88.3-19.78.57l-7.66.22-14.23.39-3,.08c-.8-7.06-2.27-19.89-3.83-32.7h0l-.36-3c-1.72-14.13-3.5-27.7-4.53-32.84-2.49-12.45,0-64.14,0-64.14l.27-.43h0l1.18-2c5.89-9.83,27.73-47.45,27.19-63.62-.32-9.65,9-23.61,18-34.86,1.18-1.46,2.35-2.88,3.5-4.23C814.78,549,820.92,543,820.92,543l21.25-15.38a119.21,119.21,0,0,1,75.77-22.74c8,.41,14.38,1.53,16,3.94h0c.69.39,16.19,9.29,33.19,29.15a175.343,175.343,0,0,1,21.48,31.44c.18.32.36.65.53,1,0,0,38.61,64.14,43.59,102.75s12.46,70.36,12.46,70.36S1047.32,755.71,1049.7,772.39Z" transform="translate(-248.465 -105.99)" fill="#5f5d7e"/>
    <path id="Path_77" data-name="Path 77" d="M926.89,737.87c-3.39,5.51-.14,33.59,3.47,51.51-3.74.25-7.48.47-11.21.68-14.95.84-29.92,1.45-44.89,2-11,.38-21.89.7-32.83,1l-22.25.65-5.75.17-2.52.07c1.17-4.23,1.4-8.65-1.71-10.62-6.85-4.36-19.93-32.39-19.93-32.39s-11.2,2.5-12.45-89a132.211,132.211,0,0,1,5.57-41.45,102.118,102.118,0,0,1,4.71-12.34h0a96.421,96.421,0,0,1,15.46-23.89h0c21.4-24.22,48.34-30,48.34-30a80.321,80.321,0,0,1,14.17-1.08h.12a73.441,73.441,0,0,1,32.5,8A84.611,84.611,0,0,1,910,568.69a98.62,98.62,0,0,1,10.32,8.82c34.92,34,43.18,87.09,21.61,130.82C935.05,722.34,928.82,734.73,926.89,737.87Z" transform="translate(-240.102 -105.99)" opacity="0.1"/>
    <path id="Path_78" data-name="Path 78" d="M934.36,742.85c-3.07,5-.7,28.41,2.45,46.1l-4,.27-2.46.16c-3.74.25-7.48.47-11.21.68-14.95.84-29.92,1.45-44.89,2-11,.38-21.89.7-32.83,1l-22.25.65c0-2.28-.7-4.25-2.51-5.4a15.5,15.5,0,0,1-3.32-3.25c-.29-.35-.59-.73-.89-1.12-6.93-9.2-15.71-28-15.71-28s-11.21,2.49-12.46-89c-.4-29.82,7.32-51.64,17.91-67.51,21.94-32.86,56.19-40.22,56.19-40.22a75.789,75.789,0,0,1,37.9,3.09A77,77,0,0,1,910,568.69,95.072,95.072,0,0,1,926.23,581l1.6,1.53c34.92,34,43.17,87.09,21.6,130.82C942.52,727.32,936.29,739.71,934.36,742.85Z" transform="translate(-251.714 -105.99)" opacity="0.1"/>
    <path id="Path_79" data-name="Path 79" d="M929.38,737.87c-3.38,5.5-.16,33.43,3.44,51.35l-2.46.16c-3.74.25-7.48.47-11.21.68-14.95.84-29.92,1.45-44.89,2-11,.38-21.89.7-32.83,1l-22.25.65-5.75.17c.88-3.23,1.21-6.56-.08-8.82a4.83,4.83,0,0,0-.89-1.12,3.907,3.907,0,0,0-.77-.61c-6.85-4.36-19.93-32.39-19.93-32.39s-11.2,2.5-12.45-89c-.46-34.26,9.8-58,22.82-74.22,21.78-27.17,51.28-33.51,51.28-33.51a81.337,81.337,0,0,1,11.68-1.08h.12a73.62,73.62,0,0,1,33.42,7.2,90.85,90.85,0,0,1,24.21,17.22c1.16,1.13,2.3,2.28,3.39,3.45,32,34.09,39.08,85.1,18.22,127.37C937.54,722.34,931.31,734.73,929.38,737.87Z" transform="translate(-220.882 -105.99)" fill="#5f5d7e"/>
    <path id="Path_80" data-name="Path 80" d="M852.35,676.39S790.9,720,796.14,726,852.35,676.39,852.35,676.39Z" transform="translate(-224.355 -105.99)" opacity="0.1"/>
    <path id="Path_81" data-name="Path 81" d="M938.58,692.1s-19.2-17.1-17.81-10.47S938.58,692.1,938.58,692.1Z" transform="translate(-267.274 -105.99)" opacity="0.1"/>
    <path id="Path_82" data-name="Path 82" d="M919.15,790.06c-14.95.84-29.92,1.45-44.89,2-25.63-3-52.28-7.41-52.28-7.41C824.29,783.3,906.06,781.67,919.15,790.06Z" transform="translate(-236.048 -105.99)" opacity="0.1"/>
    <path id="Path_83" data-name="Path 83" d="M1032.77,776.72c-2.82.63-5.66,1.21-8.5,1.75-1.11-17.89-1.55-33.3-1.55-33.3a317.51,317.51,0,0,1,10.05,31.55Z" transform="translate(-278.465 -105.99)" opacity="0.1"/>
    <path id="Path_84" data-name="Path 84" d="M791.13,794.52l-7.66.22c-6.1-16.66-11.34-36.42-13.48-44.81-.66-2.59-1-4.1-1-4.1l.95,2C773.09,754.4,783.53,776.32,791.13,794.52Z" transform="translate(-214.268 -105.99)" opacity="0.1"/>
    <path id="Path_85" data-name="Path 85" d="M910,418.07a94.752,94.752,0,0,1-12.24,22.39c.3.83.6,1.64.91,2.46a246.432,246.432,0,0,0,12,26.49l.3.58c.52,4,1.24,8,2.07,11.9q-22.8,1.2-45.65,1.05c-6.62,0-13.34-.19-19.65-2.17a34,34,0,0,1-7.44-3.38,37.38,37.38,0,0,1-5.3-3.89,45,45,0,0,1-14.58-28.66c-.91-8.59.39-17.49-2.1-25.76a28.185,28.185,0,0,0-1-2.71A29.88,29.88,0,0,0,794,398.63a6.39,6.39,0,0,0-4.34.59,7.25,7.25,0,0,0-2.35,3.64L777,429.75c-7.34,1.84-12.52-7.75-11.91-15.29s4-15.26,1.49-22.4c-.77-2.21-2.08-4.22-2.64-6.48-2.23-8.91,7.35-16.82,7.43-26,.06-7.55-6.4-13.65-13.26-16.79-6.29-2.88-13.24-4.12-19.54-6.93A95.4,95.4,0,0,1,916.3,384c0,1.46,0,2.9-.1,4.34a94.8,94.8,0,0,1-6.2,29.73Z" transform="translate(-231.499 -103.478)" opacity="0.1"/>
    <path id="Path_86" data-name="Path 86" d="M815.59,259.39c-6.37-.64-13.37-.8-18.53,3-5.42,4-7.22,11.16-10.82,16.85-6.87,10.88-19.83,15.85-30.77,22.62s-21.3,18.86-17.64,31.2c6.74,3.4,14.39,4.59,21.25,7.73s13.32,9.24,13.26,16.79c-.08,9.18-9.66,17.09-7.43,26,.56,2.26,1.87,4.27,2.64,6.48,2.49,7.14-.88,14.86-1.49,22.4s4.57,17.13,11.91,15.29l10.38-26.89a7.25,7.25,0,0,1,2.35-3.64,6.39,6.39,0,0,1,4.34-.59,29.77,29.77,0,0,1,24.24,20.45c2.49,8.27,1.19,17.17,2.1,25.76,1.67,15.84,12.14,31.16,27.34,35.93,6.31,2,13,2.13,19.65,2.17q22.83.17,45.65-1.05c-3.75-17.64-5.28-37.13,3.81-52.69,3.89-6.66,9.5-12.15,13.78-18.57,7-10.46,10.18-22.95,12.75-35.26,2-9.33,3.63-18.87,2.75-28.36-1.47-15.91-9.92-30.21-18.16-43.89-4.34-7.21-8.9-14.65-15.89-19.31-14.54-9.68-32.36-3.61-47.9-9.17C848.65,266.75,833.56,261.21,815.59,259.39Z" transform="translate(-237.064 -103.315)" fill="#865a61"/>
    <g id="Group_4" data-name="Group 4" transform="translate(500.018 220.562)" opacity="0.1">
      <path id="Path_87" data-name="Path 87" d="M768.19,392.42a20.6,20.6,0,0,0-.65-9.53c-.7-2-1.83-3.85-2.46-5.87a12.57,12.57,0,0,0-.17,6.39c.56,2.26,1.87,4.27,2.63,6.48A15.419,15.419,0,0,1,768.19,392.42Z" transform="translate(-737.082 -324.2)"/>
      <path id="Path_88" data-name="Path 88" d="M771.87,353.91a15.272,15.272,0,0,0,.46-3.5c.06-7.54-6.39-13.65-13.25-16.79s-14.51-4.33-21.25-7.73a17.29,17.29,0,0,1-.41-1.69,18.35,18.35,0,0,0,.41,8.69c6.74,3.4,14.39,4.59,21.25,7.73C764.85,343.26,770.3,348,771.87,353.91Z" transform="translate(-737.082 -324.2)"/>
      <path id="Path_89" data-name="Path 89" d="M868.36,473.77c-6.61,0-13.33-.19-19.64-2.17-15.2-4.77-25.67-20.09-27.34-35.93-.91-8.59.39-17.48-2.1-25.76A29.77,29.77,0,0,0,795,389.46a6.39,6.39,0,0,0-4.34.59,7.18,7.18,0,0,0-2.35,3.64L778,420.58c-5.9,1.48-10.4-4.42-11.63-10.71-.11.81-.22,1.62-.28,2.42-.62,7.54,4.57,17.13,11.91,15.29l10.38-26.89a7.181,7.181,0,0,1,2.35-3.64,6.39,6.39,0,0,1,4.34-.59,29.77,29.77,0,0,1,24.24,20.45c2.49,8.28,1.19,17.17,2.1,25.76,1.67,15.84,12.14,31.16,27.34,35.93,6.31,2,13,2.13,19.64,2.17q22.85.17,45.66-1c-.48-2.29-.93-4.61-1.33-6.94Q890.55,473.92,868.36,473.77Z" transform="translate(-737.082 -324.2)"/>
      <path id="Path_90" data-name="Path 90" d="M944.36,366.2c-2.58,12.31-5.77,24.8-12.75,35.26-4.28,6.42-9.89,11.91-13.78,18.57-5.56,9.51-7.14,20.49-6.68,31.62.38-8.69,2.29-17.11,6.68-24.62,3.89-6.66,9.5-12.15,13.78-18.57,7-10.46,10.17-22.95,12.75-35.26,1.82-8.69,3.4-17.56,2.9-26.41a129.171,129.171,0,0,1-2.9,19.41Z" transform="translate(-737.082 -324.2)"/>
    </g>
  </g>
</svg>
